# xmcd CD database file
#
# Track frame offsets:
#	150
#	3200
#	17715
#	28156
#	44068
#	56491
#	72055
#	81885
#	96284
#	116407
#	127923
#	144877
#	156805
#
# Disc length: 2263 seconds
#
# Revision: 0
# Processed by: cddbd v1.4PL0 Copyright (c) Steve Scherf et al.
# Submitted via: CDex 1.50
#
DISCID=a008d50d
DTITLE=The Rain - Misty Rain
DYEAR=2003
DGENRE=New Age
TTITLE0=Prologue
TTITLE1=Misty Rain
TTITLE2=Winter Song
TTITLE3=Remember
TTITLE4=Nocturne
TTITLE5=Solitude
TTITLE6=Raindrops
TTITLE7=The letter
TTITLE8=Never Cry
TTITLE9=Griffith
TTITLE10=November
TTITLE11=A Girl with Smile
TTITLE12=In the Silence
EXTD=YEAR: 2003
EXTT0=
EXTT1=
EXTT2=
EXTT3=
EXTT4=
EXTT5=
EXTT6=
EXTT7=
EXTT8=
EXTT9=
EXTT10=
EXTT11=
EXTT12=
PLAYORDER=
